<svg width="33" height="33" viewBox="0 0 33 33" fill="none" xmlns="http://www.w3.org/2000/svg">
<path d="M25.2792 28.0783H6.81083C5.26696 28.0783 4.01172 26.8211 4.01172 25.2792V6.81083C4.01172 5.26696 5.2689 4.01172 6.81083 4.01172H25.2792C26.823 4.01172 28.0783 5.26696 28.0783 6.81083V25.2792C28.0783 26.823 26.823 28.0783 25.2792 28.0783ZM6.81083 5.34832C6.005 5.34832 5.34832 6.005 5.34832 6.81083V25.2792C5.34832 26.085 6.005 26.7417 6.81083 26.7417H25.2792C26.085 26.7417 26.7417 26.085 26.7417 25.2792V6.81083C26.7417 6.005 26.085 5.34832 25.2792 5.34832H6.81083Z" fill="#633DFF"/>
<path d="M22.7298 29.417H21.3932V32.0902H22.7298V29.417Z" fill="#633DFF"/>
<path d="M18.7181 29.417H17.3815V32.0902H18.7181V29.417Z" fill="#633DFF"/>
<path d="M14.7082 29.417H13.3716V32.0902H14.7082V29.417Z" fill="#633DFF"/>
<path d="M10.6966 29.417H9.35999V32.0902H10.6966V29.417Z" fill="#633DFF"/>
<path d="M22.7298 0H21.3932V2.67514H22.7298V0Z" fill="#633DFF"/>
<path d="M14.7082 0H13.3716V2.67514H14.7082V0Z" fill="#633DFF"/>
<path d="M18.7181 0H17.3815V2.67514H18.7181V0Z" fill="#633DFF"/>
<path d="M10.6966 0H9.35999V2.67514H10.6966V0Z" fill="#633DFF"/>
<path d="M32.0901 9.36011H29.4169V10.6967H32.0901V9.36011Z" fill="#633DFF"/>
<path d="M32.0901 13.3718H29.4169V14.7084H32.0901V13.3718Z" fill="#633DFF"/>
<path d="M32.0901 17.3816H29.4169V18.7182H32.0901V17.3816Z" fill="#633DFF"/>
<path d="M32.0901 21.3933H29.4169V22.7299H32.0901V21.3933Z" fill="#633DFF"/>
<path d="M2.67332 9.36011H0.00012207V10.6967H2.67332V9.36011Z" fill="#633DFF"/>
<path d="M2.67345 17.3816H0.000244141V18.7182H2.67345V17.3816Z" fill="#633DFF"/>
<path d="M2.67345 13.3718H0.000244141V14.7084H2.67345V13.3718Z" fill="#633DFF"/>
<path d="M2.67345 21.3933H0.000244141V22.7299H2.67345V21.3933Z" fill="#633DFF"/>
<path d="M16.045 19.3883C14.2028 19.3883 12.7015 17.889 12.7015 16.0449C12.7015 14.2007 14.2009 12.7014 16.045 12.7014C17.8891 12.7014 19.3884 14.2007 19.3884 16.0449C19.3884 17.889 17.8891 19.3883 16.045 19.3883ZM16.045 14.04C14.9389 14.04 14.0401 14.9388 14.0401 16.0449C14.0401 17.1509 14.9389 18.0498 16.045 18.0498C17.1511 18.0498 18.0499 17.1509 18.0499 16.0449C18.0499 14.9388 17.1511 14.04 16.045 14.04Z" fill="#633DFF"/>
<path d="M17.3816 24.7368H14.7084C14.4024 24.7368 14.1351 24.5276 14.0595 24.2293L13.5307 22.1139L11.6614 23.2355C11.3979 23.3924 11.0609 23.3518 10.8439 23.1348L8.9533 21.2442C8.73635 21.0272 8.69567 20.6902 8.85257 20.4267L9.97416 18.5574L7.85884 18.0286C7.56053 17.955 7.35132 17.6877 7.35132 17.3797V14.7045C7.35132 14.3985 7.56053 14.1311 7.85884 14.0556L9.97416 13.5268L8.85257 11.6575C8.69373 11.394 8.73635 11.057 8.9533 10.84L10.8439 8.9494C11.0609 8.73244 11.3979 8.69176 11.6614 8.84867L13.5307 9.97025L14.0595 7.85493C14.1331 7.55662 14.4004 7.34741 14.7084 7.34741H17.3816C17.6877 7.34741 17.955 7.55662 18.0306 7.85493L18.5594 9.97025L20.4287 8.84867C20.6921 8.69176 21.0292 8.73244 21.2462 8.9494L23.1368 10.84C23.3537 11.057 23.3944 11.394 23.2375 11.6575L22.1159 13.5268L24.2312 14.0556C24.5295 14.1292 24.7387 14.3965 24.7387 14.7045V17.3797C24.7387 17.6857 24.5295 17.953 24.2312 18.0286L22.1159 18.5574L23.2375 20.4267C23.3963 20.6902 23.3537 21.0272 23.1368 21.2442L21.2462 23.1348C21.0292 23.3518 20.6921 23.3924 20.4287 23.2355L18.5594 22.1139L18.0306 24.2293C17.957 24.5276 17.6896 24.7368 17.3816 24.7368ZM15.2295 23.4002H16.8586L17.4804 20.9168C17.5308 20.7115 17.6761 20.543 17.8737 20.4616C18.0693 20.3802 18.2921 20.3977 18.4742 20.5062L20.6689 21.8234L21.8215 20.6708L20.5042 18.4761C20.3958 18.294 20.3783 18.0712 20.4597 17.8756C20.541 17.6799 20.7096 17.5346 20.9149 17.4823L23.3983 16.8605V15.2314L20.9149 14.6096C20.7096 14.5592 20.541 14.414 20.4597 14.2164C20.3783 14.0207 20.3958 13.798 20.5042 13.6159L21.8215 11.4211L20.6689 10.2686L18.4742 11.5858C18.2921 11.6962 18.0693 11.7117 17.8737 11.6303C17.678 11.549 17.5327 11.3805 17.4804 11.1751L16.8586 8.69176H15.2295L14.6077 11.1751C14.5573 11.3805 14.4121 11.549 14.2145 11.6303C14.0188 11.7117 13.7961 11.6962 13.614 11.5858L11.4192 10.2686L10.2667 11.4211L11.5839 13.6159C11.6924 13.798 11.7098 14.0207 11.6284 14.2164C11.5471 14.412 11.3786 14.5573 11.1732 14.6096L8.68986 15.2314V16.8605L11.1732 17.4823C11.3786 17.5327 11.5471 17.678 11.6284 17.8756C11.7098 18.0712 11.6924 18.294 11.5839 18.4761L10.2667 20.6708L11.4192 21.8234L13.614 20.5062C13.7961 20.3977 14.0188 20.3822 14.2145 20.4616C14.4101 20.543 14.5554 20.7115 14.6077 20.9168L15.2295 23.4002Z" fill="#633DFF"/>
</svg>
