<svg width="33" height="33" viewBox="0 0 33 33" fill="none" xmlns="http://www.w3.org/2000/svg">
<path d="M29.4148 22.7301H28.0782V13.37H20.0567V18.7184H26.7416V20.055H19.3884C19.0184 20.055 18.7201 19.7567 18.7201 19.3867V12.7017C18.7201 12.3318 19.0184 12.0334 19.3884 12.0334H28.7485C29.1185 12.0334 29.4168 12.3318 29.4168 12.7017V22.7301H29.4148Z" fill="#633DFF"/>
<path d="M7.35324 32.0901H0.6683C0.298314 32.0901 0 31.7918 0 31.4218V24.7369C0 24.3669 0.298314 24.0686 0.6683 24.0686H7.35324C7.72323 24.0686 8.02154 24.3669 8.02154 24.7369V31.4218C8.02154 31.7918 7.72323 32.0901 7.35324 32.0901ZM1.3366 30.7535H6.68494V25.4052H1.3366V30.7535Z" fill="#633DFF"/>
<path d="M31.4217 32.0901H24.7367V30.7535H30.7534V25.4052H25.405V28.0803C25.405 28.4503 25.1067 28.7486 24.7367 28.7486H21.3933V27.412H24.0684V24.7369C24.0684 24.3669 24.3668 24.0686 24.7367 24.0686H31.4217C31.7917 24.0686 32.09 24.3669 32.09 24.7369V31.4218C32.09 31.7918 31.7917 32.0901 31.4217 32.0901Z" fill="#633DFF"/>
<path d="M19.3885 32.0901H12.7035V30.7535H18.7202V25.4052H13.3718V28.0803C13.3718 28.4503 13.0735 28.7486 12.7035 28.7486H9.36011V27.412H12.0333V24.7369C12.0333 24.3669 12.3316 24.0686 12.7016 24.0686H19.3866C19.7565 24.0686 20.0549 24.3669 20.0549 24.7369V31.4218C20.0549 31.7918 19.7565 32.0901 19.3866 32.0901H19.3885Z" fill="#633DFF"/>
<path d="M9.36004 10.6967H8.02344V0.6683C8.02344 0.298314 8.32175 0 8.69174 0H23.3982C23.7682 0 24.0665 0.298314 24.0665 0.6683V7.35324C24.0665 7.72323 23.7682 8.02154 23.3982 8.02154H10.6966V6.68494H22.7299V1.3366H9.36004V10.6967Z" fill="#633DFF"/>
<path d="M12.7016 20.0567H3.34347C2.97348 20.0567 2.67517 19.7584 2.67517 19.3884V12.7035C2.67517 12.3335 2.97348 12.0352 3.34347 12.0352H12.7036C13.0735 12.0352 13.3719 12.3335 13.3719 12.7035V15.3767H17.3836V16.7133H12.7036C12.3336 16.7133 12.0353 16.4149 12.0353 16.045V13.3718H4.01177V18.7201H12.7036V20.0567H12.7016Z" fill="#633DFF"/>
</svg>
