<svg width="33" height="33" viewBox="0 0 33 33" fill="none" xmlns="http://www.w3.org/2000/svg">
<path d="M16.045 12.7014C14.5709 12.7014 13.3699 11.5023 13.3699 10.0262C13.3699 8.55016 14.5689 7.35303 16.045 7.35303C17.5211 7.35303 18.7182 8.55209 18.7182 10.0262C18.7182 11.5004 17.5191 12.7014 16.045 12.7014ZM16.045 8.68963C15.307 8.68963 14.7084 9.29013 14.7084 10.0262C14.7084 10.7623 15.3089 11.3628 16.045 11.3628C16.7811 11.3628 17.3816 10.7623 17.3816 10.0262C17.3816 9.29013 16.7811 8.68963 16.045 8.68963Z" fill="#633DFF"/>
<path d="M10.6966 20.0568C9.2225 20.0568 8.02344 18.8578 8.02344 17.3817C8.02344 15.9056 9.2225 14.7085 10.6966 14.7085C12.1708 14.7085 13.3698 15.9076 13.3698 17.3817C13.3698 18.8558 12.1708 20.0568 10.6966 20.0568ZM10.6966 16.0451C9.96054 16.0451 9.36004 16.6456 9.36004 17.3817C9.36004 18.1178 9.96054 18.7183 10.6966 18.7183C11.4327 18.7183 12.0332 18.1178 12.0332 17.3817C12.0332 16.6456 11.4327 16.0451 10.6966 16.0451Z" fill="#633DFF"/>
<path d="M21.3934 22.0615C19.9193 22.0615 18.7202 20.8624 18.7202 19.3883C18.7202 17.9141 19.9193 16.7131 21.3934 16.7131C22.8676 16.7131 24.0686 17.9122 24.0686 19.3883C24.0686 20.8643 22.8695 22.0615 21.3934 22.0615ZM21.3934 18.0497C20.6573 18.0497 20.0568 18.6502 20.0568 19.3863C20.0568 20.1224 20.6573 20.7229 21.3934 20.7229C22.1295 20.7229 22.73 20.1224 22.73 19.3863C22.73 18.6502 22.1295 18.0497 21.3934 18.0497Z" fill="#633DFF"/>
<path d="M16.7132 27.4099H15.3766V32.09H16.7132V27.4099Z" fill="#633DFF"/>
<path d="M16.7132 19.3884H15.3766V26.0734H16.7132V19.3884Z" fill="#633DFF"/>
<path d="M16.7132 12.0334H15.3766V18.0501H16.7132V12.0334Z" fill="#633DFF"/>
<path d="M25.5 29.0042C25.3567 29.0042 25.2133 28.9577 25.0932 28.8667L20.9866 25.7073C20.8219 25.5814 20.7251 25.3838 20.7251 25.1765V21.3934H22.0617V24.8491L25.4419 27.4487L27.4468 25.4438L25.1513 22.4588C24.9809 22.2379 24.9673 21.9338 25.1145 21.6975C25.7402 20.6941 26.1916 19.6054 26.4569 18.4645C26.5209 18.1933 26.7456 17.9879 27.0226 17.9531L30.7534 17.4669V14.629L27.0226 14.1428C26.7456 14.106 26.5209 13.9026 26.4569 13.6314C26.1916 12.4904 25.7422 11.4018 25.1145 10.3984C24.9673 10.162 24.9828 9.85791 25.1513 9.63708L27.4468 6.65201L25.4419 4.64711L22.4568 6.94257C22.236 7.11304 21.9319 7.12854 21.6955 6.97938C20.6921 6.3537 19.6054 5.90235 18.4625 5.63697C18.1913 5.57304 17.986 5.34834 17.9511 5.07133L17.4649 1.34047H14.6271L14.1408 5.07133C14.106 5.34834 13.9006 5.57304 13.6295 5.63697C12.4866 5.90235 11.3998 6.35176 10.3964 6.97938C10.1601 7.12854 9.85598 7.11304 9.63515 6.94257L6.65007 4.64711L4.64517 6.65201L6.94064 9.63708C7.1111 9.85791 7.12466 10.162 6.97744 10.3984C6.35176 11.4018 5.90041 12.4885 5.63503 13.6314C5.57111 13.9026 5.3464 14.1079 5.0694 14.1428L1.33854 14.629V17.4669L5.0694 17.9531C5.3464 17.9899 5.57111 18.1933 5.63503 18.4645C5.89848 19.6054 6.34982 20.6941 6.97744 21.6975C7.12466 21.9338 7.10917 22.2379 6.94064 22.4588L4.64517 25.4438L6.65007 27.4487L10.0303 24.8491V19.3885H11.3669V25.1785C11.3669 25.3857 11.2701 25.5814 11.1054 25.7092L6.99875 28.8686C6.73143 29.072 6.35563 29.0488 6.11931 28.8105L3.28339 25.9746C3.04513 25.7363 3.02188 25.3605 3.22528 25.0952L5.6021 22.0035C5.09845 21.1241 4.71103 20.1904 4.44565 19.2199L0.583068 18.7163C0.249886 18.6737 0 18.3889 0 18.0538V14.0421C0 13.7069 0.249886 13.4222 0.583068 13.3796L4.44565 12.8759C4.71103 11.9035 5.09845 10.9698 5.6021 10.0904L3.22528 6.99875C3.02188 6.73337 3.04513 6.35563 3.28339 6.11931L6.11931 3.28339C6.35757 3.04513 6.73337 3.02188 6.99875 3.22528L10.0904 5.6021C10.9698 5.09845 11.9035 4.71103 12.8759 4.44565L13.3796 0.583068C13.4222 0.249886 13.7069 0 14.0421 0H18.0538C18.3889 0 18.6737 0.249886 18.7163 0.583068L19.2199 4.44565C20.1924 4.71103 21.126 5.09845 22.0055 5.6021L25.0971 3.22528C25.3625 3.01994 25.7402 3.04513 25.9765 3.28339L28.8125 6.11931C29.0507 6.35757 29.074 6.73337 28.8706 6.99875L26.4938 10.0904C26.9974 10.9698 27.3848 11.9035 27.6502 12.8759L31.5128 13.3796C31.846 13.4222 32.0959 13.7069 32.0959 14.0421V18.0538C32.0959 18.3889 31.846 18.6737 31.5128 18.7163L27.6502 19.2199C27.3848 20.1924 26.9974 21.1241 26.4938 22.0035L28.8706 25.0952C29.074 25.3605 29.0507 25.7383 28.8125 25.9746L25.9765 28.8105C25.8468 28.9403 25.6763 29.0062 25.5039 29.0062L25.5 29.0042Z" fill="#633DFF"/>
</svg>
