<svg width="33" height="33" viewBox="0 0 33 33" fill="none" xmlns="http://www.w3.org/2000/svg">
<path d="M28.0783 20.0569C25.8661 20.0569 24.0665 18.2574 24.0665 16.0452C24.0665 13.833 25.8661 12.0334 28.0783 12.0334C30.2904 12.0334 32.09 13.833 32.09 16.0452C32.09 18.2574 30.2904 20.0569 28.0783 20.0569ZM28.0783 13.372C26.6041 13.372 25.4031 14.5711 25.4031 16.0452C25.4031 17.5193 26.6022 18.7184 28.0783 18.7184C29.5543 18.7184 30.7534 17.5193 30.7534 16.0452C30.7534 14.5711 29.5543 13.372 28.0783 13.372Z" fill="#633DFF"/>
<path d="M23.3982 10.6968C21.186 10.6968 19.3865 8.89725 19.3865 6.68508C19.3865 4.47291 21.186 2.67334 23.3982 2.67334C25.6104 2.67334 27.41 4.47291 27.41 6.68508C27.41 8.89725 25.6104 10.6968 23.3982 10.6968ZM23.3982 4.01188C21.9241 4.01188 20.7231 5.21094 20.7231 6.68508C20.7231 8.15921 21.9221 9.35828 23.3982 9.35828C24.8743 9.35828 26.0714 8.15921 26.0714 6.68508C26.0714 5.21094 24.8723 4.01188 23.3982 4.01188Z" fill="#633DFF"/>
<path d="M23.3982 29.4168C21.186 29.4168 19.3865 27.6172 19.3865 25.405C19.3865 23.1929 21.186 21.3933 23.3982 21.3933C25.6104 21.3933 27.41 23.1929 27.41 25.405C27.41 27.6172 25.6104 29.4168 23.3982 29.4168ZM23.3982 22.7318C21.9241 22.7318 20.7231 23.9309 20.7231 25.405C20.7231 26.8792 21.9221 28.0783 23.3982 28.0783C24.8743 28.0783 26.0714 26.8792 26.0714 25.405C26.0714 23.9309 24.8723 22.7318 23.3982 22.7318Z" fill="#633DFF"/>
<path d="M20.0568 6.0166H13.3718V7.3532H20.0568V6.0166Z" fill="#633DFF"/>
<path d="M24.7349 15.3767H11.365V16.7133H24.7349V15.3767Z" fill="#633DFF"/>
<path d="M20.0568 24.7366H13.3718V26.0732H20.0568V24.7366Z" fill="#633DFF"/>
<path d="M16.7132 18.05H15.3766V23.3984H16.7132V18.05Z" fill="#633DFF"/>
<path d="M16.7132 8.69189H15.3766V14.0402H16.7132V8.69189Z" fill="#633DFF"/>
<path d="M2.47959 12.2233C2.16578 11.5259 2.005 10.7879 2.005 10.0285C2.005 7.38631 3.97697 5.11215 6.59206 4.74023C6.87488 4.69955 7.11702 4.68018 7.35334 4.68018C10.2687 4.68018 12.6668 7.05119 12.6997 9.96847L11.3631 9.98203C11.338 7.79504 9.54033 6.01678 7.35528 6.01678C7.18482 6.01678 7.00273 6.03034 6.78384 6.06327C4.82155 6.34415 3.34354 8.0488 3.34354 10.0285C3.34354 10.598 3.46364 11.1501 3.69997 11.6731L2.48153 12.2233H2.47959Z" fill="#633DFF"/>
<path d="M2.7663 20.7271C1.05972 19.7857 0.00012207 17.99 0.00012207 16.0451C0.00012207 14.1003 1.05972 12.3046 2.7663 11.3631C3.55277 10.9273 4.44577 10.6968 5.34846 10.6968C7.44634 10.6968 9.3602 11.9346 10.2222 13.8504L9.00184 14.4005C8.35485 12.9632 6.91945 12.0334 5.34653 12.0334C4.67048 12.0334 4.00024 12.2058 3.41136 12.5312C2.13093 13.2383 1.33479 14.5845 1.33479 16.0432C1.33479 17.5018 2.13093 18.8481 3.40942 19.5551L2.76243 20.7252L2.7663 20.7271Z" fill="#633DFF"/>
<path d="M6.59402 27.35C3.97893 26.9761 2.00696 24.702 2.00696 22.0617C2.00696 21.3024 2.16774 20.5624 2.48155 19.867C3.34356 17.9512 5.25742 16.7134 7.3553 16.7134C8.25799 16.7134 9.15099 16.9439 9.93746 17.3797L9.29046 18.5498C8.70158 18.2224 8.03135 18.05 7.3553 18.05C5.78237 18.05 4.34698 18.9798 3.69999 20.4171C3.46366 20.9401 3.34356 21.4922 3.34356 22.0617C3.34356 24.0414 4.82157 25.7461 6.78385 26.027L6.59402 27.35Z" fill="#633DFF"/>
<path d="M11.3651 32.09C8.41679 32.09 6.01672 29.6899 6.01672 26.7417C6.01672 26.7262 6.01672 26.6816 6.0206 26.6642C6.05353 23.7643 8.44972 21.3933 11.3651 21.3933C11.6014 21.3933 11.8435 21.4127 12.1263 21.4534L11.9365 22.7783C11.7176 22.7473 11.5355 22.7318 11.3651 22.7318C9.18001 22.7318 7.38044 24.5101 7.3572 26.6971C7.3572 26.7107 7.35526 26.7513 7.35332 26.7649C7.35332 28.9538 9.15289 30.7534 11.3651 30.7534C13.5772 30.7534 15.3768 28.9538 15.3768 26.7417V25.405H16.7134V26.7417C16.7134 29.6899 14.3133 32.09 11.3651 32.09Z" fill="#633DFF"/>
<path d="M16.7133 6.68494H15.3767V5.34834C15.3767 3.13617 13.5771 1.3366 11.3649 1.3366C9.15275 1.3366 7.35319 3.13617 7.35319 5.34834L6.01852 5.40064H6.68682L6.01852 5.42776L6.01465 5.34834C6.01659 2.40007 8.41666 0 11.3649 0C14.3132 0 16.7133 2.40007 16.7133 5.34834V6.68494Z" fill="#633DFF"/>
</svg>
