<svg width="33" height="33" viewBox="0 0 33 33" fill="none" xmlns="http://www.w3.org/2000/svg">
<path d="M14.7084 13.3719C12.8662 13.3719 11.365 11.8726 11.365 10.0285C11.365 8.18438 12.8643 6.68506 14.7084 6.68506C15.9482 6.68506 17.0794 7.36498 17.6606 8.45944L16.4809 9.08707C16.1303 8.43039 15.4523 8.02166 14.7084 8.02166C13.6023 8.02166 12.7035 8.92048 12.7035 10.0266C12.7035 11.1326 13.6023 12.0315 14.7084 12.0315V13.3681V13.3719Z" fill="#633DFF"/>
<path d="M13.3718 21.3934H4.68004C2.09982 21.3934 0 19.2935 0 16.7133V4.68004C0 2.09982 2.09982 0 4.68004 0H16.7133C19.2935 0 21.3934 2.09982 21.3934 4.68004V5.34834H20.0568V4.68004C20.0568 2.83786 18.5574 1.3366 16.7133 1.3366H4.68004C2.83592 1.3366 1.3366 2.83592 1.3366 4.68004V16.7133C1.3366 18.5555 2.83592 20.0568 4.68004 20.0568H13.3718V21.3934Z" fill="#633DFF"/>
<path d="M13.3718 5.34834H8.02342C6.54929 5.34834 5.35022 4.14927 5.35022 2.6732V0.6683C5.35022 0.298314 5.64853 0 6.01852 0H15.3786C15.7486 0 16.0469 0.298314 16.0469 0.6683V2.6732C16.0469 4.14734 14.8478 5.34834 13.3737 5.34834H13.3718ZM6.68488 1.3366V2.6732C6.68488 3.41124 7.28539 4.0098 8.02148 4.0098H13.3698C14.1059 4.0098 14.7064 3.4093 14.7064 2.6732V1.3366H6.68488Z" fill="#633DFF"/>
<path d="M6.68499 13.3719C4.84281 13.3719 3.34155 11.8726 3.34155 10.0285C3.34155 8.18438 4.84087 6.68506 6.68499 6.68506C8.52911 6.68506 10.0284 8.18438 10.0284 10.0285C10.0284 11.8726 8.52911 13.3719 6.68499 13.3719ZM6.68499 8.0236C5.57891 8.0236 4.68009 8.92241 4.68009 10.0285C4.68009 11.1346 5.57891 12.0334 6.68499 12.0334C7.79108 12.0334 8.68989 11.1346 8.68989 10.0285C8.68989 8.92241 7.79108 8.0236 6.68499 8.0236Z" fill="#633DFF"/>
<path d="M12.7016 15.3767H7.35327V16.7133H12.7016V15.3767Z" fill="#633DFF"/>
<path d="M8.68982 24.0686H2.00488V25.4052H8.68982V24.0686Z" fill="#633DFF"/>
<path d="M13.3699 27.4099H6.68494V28.7465H13.3699V27.4099Z" fill="#633DFF"/>
<path d="M11.3669 30.7534H3.34338V32.09H11.3669V30.7534Z" fill="#633DFF"/>
<path d="M15.7002 32.0068L15.0513 30.8387C17.9221 29.2464 18.0499 25.4284 18.0499 25.3896L19.3865 25.4226C19.3826 25.6105 19.2315 30.0484 15.7002 32.0068Z" fill="#633DFF"/>
<path d="M29.7597 32.0068C26.2283 30.0484 26.0772 25.6105 26.0734 25.4226L27.41 25.3896C27.41 25.4284 27.5533 29.2561 30.4086 30.8407L29.7597 32.0087V32.0068Z" fill="#633DFF"/>
<path d="M22.73 27.41C17.7439 27.41 13.3699 22.0519 13.3699 15.9423C13.3699 10.284 17.3932 6.0166 22.73 6.0166C28.0667 6.0166 32.09 10.284 32.09 15.9423C32.09 22.0519 27.7161 27.41 22.73 27.41ZM22.73 7.3532C18.0809 7.3532 14.7065 10.964 14.7065 15.9404C14.7065 21.3371 18.4548 26.0714 22.73 26.0714C27.0051 26.0714 30.7534 21.3371 30.7534 15.9404C30.7534 10.964 27.379 7.3532 22.73 7.3532Z" fill="#633DFF"/>
<path d="M26.3834 13.92C25.1281 13.92 23.7664 13.7747 22.5092 13.333C20.8626 12.7577 18.726 12.6008 17.434 12.6996L17.3313 11.3669C18.8054 11.2545 21.1145 11.4269 22.9528 12.072C26.2245 13.2188 30.5346 12.0701 30.5791 12.0584L30.9317 13.3485C30.8058 13.3834 28.7931 13.9219 26.3873 13.9219L26.3834 13.92Z" fill="#633DFF"/>
</svg>
