<svg width="33" height="33" viewBox="0 0 33 33" fill="none" xmlns="http://www.w3.org/2000/svg">
<path d="M16.7133 22.73H6.01664C2.69838 22.73 0 20.0316 0 16.7133V6.01664C0 2.69838 2.69838 0 6.01664 0H16.7133C20.0316 0 22.73 2.69838 22.73 6.01664V16.7133H21.3934V6.01664C21.3934 3.43642 19.2935 1.3366 16.7133 1.3366H6.01664C3.43642 1.3366 1.3366 3.43642 1.3366 6.01664V16.7133C1.3366 19.2935 3.43642 21.3934 6.01664 21.3934H16.7133V22.73Z" fill="#633DFF"/>
<path d="M14.0401 5.34834H8.69176C7.21762 5.34834 6.01855 4.14927 6.01855 2.6732V0.6683C6.01855 0.298314 6.31687 0 6.68686 0H16.0469C16.4169 0 16.7152 0.298314 16.7152 0.6683V2.6732C16.7152 4.14734 15.5162 5.34834 14.0401 5.34834ZM7.35322 1.3366V2.6732C7.35322 3.41124 7.95372 4.0098 8.68982 4.0098H14.0382C14.7762 4.0098 15.3748 3.4093 15.3748 2.6732V1.3366H7.35322Z" fill="#633DFF"/>
<path d="M16.045 14.0399C14.2028 14.0399 12.7015 12.5406 12.7015 10.6965C12.7015 8.85235 14.2009 7.35303 16.045 7.35303C17.8891 7.35303 19.3884 8.85235 19.3884 10.6965C19.3884 12.5406 17.8891 14.0399 16.045 14.0399ZM16.045 8.69157C14.9389 8.69157 14.0401 9.59038 14.0401 10.6965C14.0401 11.8026 14.9389 12.7014 16.045 12.7014C17.1511 12.7014 18.0499 11.8026 18.0499 10.6965C18.0499 9.59038 17.1511 8.69157 16.045 8.69157Z" fill="#633DFF"/>
<path d="M6.68499 14.0399C4.84281 14.0399 3.34155 12.5406 3.34155 10.6965C3.34155 8.85235 4.84087 7.35303 6.68499 7.35303C8.52911 7.35303 10.0284 8.85235 10.0284 10.6965C10.0284 12.5406 8.52911 14.0399 6.68499 14.0399ZM6.68499 8.69157C5.57891 8.69157 4.68009 9.59038 4.68009 10.6965C4.68009 11.8026 5.57891 12.7014 6.68499 12.7014C7.79108 12.7014 8.68989 11.8026 8.68989 10.6965C8.68989 9.59038 7.79108 8.69157 6.68499 8.69157Z" fill="#633DFF"/>
<path d="M21.3934 32.0901C21.376 32.0901 21.3585 32.0901 21.3411 32.0901C21.0699 32.0688 20.8394 31.8848 20.7561 31.6252L16.0761 16.9168C16.0005 16.6785 16.0644 16.4189 16.2407 16.2407C16.417 16.0644 16.6804 16.0025 16.9168 16.0761L31.6252 20.7561C31.8847 20.8394 32.0688 21.0699 32.0901 21.3411C32.1114 21.6123 31.9661 21.8699 31.722 21.992L25.2366 25.2347L21.9939 31.722C21.8796 31.9506 21.6472 32.092 21.3953 32.092L21.3934 32.0901ZM17.742 17.742L21.5309 29.6493L24.1383 24.4366C24.2022 24.3068 24.3087 24.2022 24.4366 24.1383L29.6493 21.5309L17.742 17.742Z" fill="#633DFF"/>
<path d="M14.7067 16.7131H8.02173V18.0497H14.7067V16.7131Z" fill="#633DFF"/>
</svg>
